Coordinates
version=1
nRows=8
nColumns=40
inDegrees=yes

Units are S.I. units (second, meters, Newtons, ...)
If the header above contains a line with 'inDegrees', this indicates whether rotational values are in degrees (yes) or radians (no).

endheader
time	pelvis_tilt	pelvis_list	pelvis_rotation	pelvis_tx	pelvis_ty	pelvis_tz	hip_flexion_r	hip_adduction_r	hip_rotation_r	knee_angle_r	knee_angle_r_beta	ankle_angle_r	subtalar_angle_r	mtp_angle_r	hip_flexion_l	hip_adduction_l	hip_rotation_l	knee_angle_l	knee_angle_l_beta	ankle_angle_l	subtalar_angle_l	mtp_angle_l	lumbar_extension	lumbar_bending	lumbar_rotation	arm_flex_r	arm_add_r	arm_rot_r	elbow_flex_r	pro_sup_r	wrist_flex_r	wrist_dev_r	arm_flex_l	arm_add_l	arm_rot_l	elbow_flex_l	pro_sup_l	wrist_flex_l	wrist_dev_l
      5.34999999999999964473	     49.88869675850035889653	     -0.36378710079282711165	   -177.87267315039161985624	      0.43552054860587874341	      0.73795223997373626812	     -0.61292230216969201262	     92.51153508587225360316	    -12.45940756565503448883	     -8.35735874324832117566	     45.05807102039704403751	      0.78641169390336951306	      4.22134030665535942006	      0.00000000000000000000	      0.00000000000000000000	     91.32999783429040974170	     -6.16730155587922723726	     -3.74230947321374207704	     41.32520340986697249264	      0.72126086355856644516	      0.81001751573253089056	      0.00000000000000000000	      0.00000000000000000000	    -27.10521143784676567634	      5.69879413689198877080	      4.97477110261628485688	     66.77424514502173735764	    -14.32987595547288073305	     52.87559243959385923972	      1.97750666818991693852	     88.15459447807120341167	      0.00000000000000000000	      0.00000000000000000000	     55.24965536877406435678	      0.94781824984068674400	     52.14205678089679452114	      0.57107958062406727340	      2.50560514017522839580	      0.00000000000000000000	      0.00000000000000000000
      5.35500000000000042633	     49.87194434892874284060	     -0.38263314804509401812	   -177.83513501270405754440	      0.43527030384021203613	      0.73947940843910242581	     -0.61266915243720532214	     92.20113780789347401878	    -12.47812546286870727386	     -8.43249762016522019792	     44.58274696581180052135	      0.77811572413692775552	      4.01502645679557002012	      0.00000000000000000000	      0.00000000000000000000	     91.00315219274520472936	     -6.11815108230787441101	     -3.92132834340916813787	     40.83272864369823196284	      0.71266555740593273693	      0.57616191681782358280	      0.00000000000000000000	      0.00000000000000000000	    -27.09676604080573625311	      5.73176207240123147812	      4.92091768844835186769	     66.67670936419818872309	    -14.34391518019648259497	     53.11143765165444108334	      1.96579993210736714282	     88.14634595545467732336	      0.00000000000000000000	      0.00000000000000000000	     55.07906289288555257144	      0.92194316963855782454	     52.60228756766616697860	      0.56948606030756121488	      2.49858070674069931982	      0.00000000000000000000	      0.00000000000000000000
      5.36000000000000031974	     49.69739566394716945297	     -0.25414740543674507744	   -177.82273043970681669634	      0.43466336187484183595	      0.74119215868146159920	     -0.61257695915868393133	     91.66839297580706613644	    -12.45176183518660373295	     -8.66217216648809440471	     44.14250280671990367409	      0.77043201404810046640	      3.91790110148707437787	      0.00000000000000000000	      0.00000000000000000000	     90.52951943991507732790	     -6.09451080619657403759	     -3.86490199631016162485	     40.36809907115237905373	      0.70455624156287366411	      0.43886275282968567613	      0.00000000000000000000	      0.00000000000000000000	    -27.28685017334676743417	      5.96315752869894222243	      4.89645568992095459038	     66.65398300199839809466	    -14.28025494709695131235	     53.99956245898174245212	      1.92950723173980831504	     88.12323964407289622613	      0.00000000000000000000	      0.00000000000000000000	     55.10731813773680443092	      0.92670272541020493051	     51.33007550347103631339	      0.57363513727975867784	      2.63927125627018099863	      0.00000000000000000000	      0.00000000000000000000
      5.36500000000000021316	     49.66444291259156784690	     -0.28245569224260103081	   -177.81151477927463133710	      0.43440476608778250123	      0.74259257516510235320	     -0.61247488114642434365	     91.36639642731678634391	    -12.46507476816417536725	     -8.81055136622929957468	     43.67806668370032951998	      0.76232607453621148430	      3.75357467809224720767	      0.00000000000000000000	      0.00000000000000000000	     90.21262062328403885658	     -6.08886534077382268748	     -4.03444489180845700105	     39.92569469343682442286	      0.69683482854650069527	      0.24957610377145644787	      0.00000000000000000000	      0.00000000000000000000	    -27.26358080339767653300	      5.95666336700247622815	      4.89443935406043451053	     66.50403449694043445106	    -14.30432399725110848010	     53.81006122918341816330	      1.91380963182391994337	     88.10874912082459786689	      0.00000000000000000000	      0.00000000000000000000	     54.74540795480602639600	      0.83003164505056403755	     53.16077733315482589660	      0.57220338750818833251	      2.49864307048334843842	      0.00000000000000000000	      0.00000000000000000000
      5.37000000000000010658	     49.59841641641820331188	     -0.22758351404564203246	   -177.80575366912026424870	      0.43407041266499096777	      0.74405081133125372528	     -0.61238316404928649916	     91.00021219239617664698	    -12.42199838154674651491	     -8.91955784589225331160	     43.27141991445799362737	      0.75522874952033502982	      3.53917940607458181290	      0.00000000000000000000	      0.00000000000000000000	     89.86888196640823878170	     -6.09390984137060964798	     -4.14097259317378618704	     39.47570909972746733274	      0.68898109834973086940	      0.06463970203943705806	      0.00000000000000000000	      0.00000000000000000000	    -27.28731303941070152064	      5.98234388960710905536	      4.95064729911513268235	     66.33631256608104820316	    -14.41238503205002352558	     53.62969124887500527166	      1.95439555815228183100	     88.12735886162553811118	      0.00000000000000000000	      0.00000000000000000000	     54.59786636244290747300	      0.86615976415464901450	     53.62086919610289470484	      0.56755848598840930030	      2.48892338160823323179	      0.00000000000000000000	      0.00000000000000000000
      5.37500000000000000000	     49.55522377673118938901	     -0.25226386796456728989	   -177.74772020796362426154	      0.43373806761471689342	      0.74548830978351188215	     -0.61211614987090801066	     90.70472568565000415219	    -12.45636388242935943538	     -8.94224632521767048843	     42.87924382463511818742	      0.74838398550532891917	      3.32883713429081096180	      0.00000000000000000000	      0.00000000000000000000	     89.52929020729953890623	     -6.01000906268793766429	     -4.27171557512453059502	     39.01582833390757798497	      0.68095466481958077942	     -0.19110832551877462993	      0.00000000000000000000	      0.00000000000000000000	    -27.27993062106419230872	      6.01681904738898065688	      4.85424085447845232721	     66.21086013337719577976	    -14.40202794361209015506	     53.87188583429792743118	      1.94524295992565687818	     88.11259233797913736908	      0.00000000000000000000	      0.00000000000000000000	     54.54464834135260531411	      0.87784233292221036660	     52.96507176690043650069	      0.57142942861489842699	      2.49449603650778817254	      0.00000000000000000000	      0.00000000000000000000
      5.37999999999999989342	     49.43228910114291352329	     -0.10727937575854239183	   -177.77775486632543788801	      0.43328422174164005209	      0.74704040608043509319	     -0.61217551430917149791	     90.21467449747997591203	    -12.37418887254491828287	     -9.21950670872029931502	     42.37850554805548597415	      0.73964445388825228456	      3.18848839789993387939	      0.00000000000000000000	      0.00000000000000000000	     89.14931820921839289440	     -6.04290806421022974604	     -4.18959406218937768784	     38.58203852608244943667	      0.67338360441143885193	     -0.35421092997812608782	      0.00000000000000000000	      0.00000000000000000000	    -27.36062914637209786406	      6.16232781878064983516	      4.95783436469251537204	     66.06978120095726580985	    -14.43809855917981366247	     53.96571220363988174995	      1.94640493490463240001	     88.09323757098425744516	      0.00000000000000000000	      0.00000000000000000000	     54.22321043165229070837	      0.80517290986274014930	     54.41532041080724724225	      0.56854370119345754020	      2.48390444791446629580	      0.00000000000000000000	      0.00000000000000000000
      5.38499999999999978684	     49.36491140537123101240	     -0.05635531571171190773	   -177.79208975340861798031	      0.43292527897224231115	      0.74841268166397389994	     -0.61220881416301153877	     89.86439317680491001283	    -12.30856684179679660929	     -9.32959945207154817126	     41.94347835977898597548	      0.73205179711713408430	      3.04480766437047245532	      0.00000000000000000000	      0.00000000000000000000	     88.82309108657885587945	     -6.05610471154351337475	     -4.22714446398423593365	     38.17216318704868882605	      0.66622993022257170903	     -0.52563012313747237148	      0.00000000000000000000	      0.00000000000000000000	    -27.36610983518552941973	      6.21610892092906119899	      4.97627809850367430755	     65.92284662848767595733	    -14.41748238917356950139	     54.08664325839630038217	      1.93550124933129086280	     88.10446274502632491021	      0.00000000000000000000	      0.00000000000000000000	     54.10782948172012396526	      0.80229886968548869142	     54.20394086152624169017	      0.57053872828342411250	      2.50450198893361664076	      0.00000000000000000000	      0.00000000000000000000
